# xmcd
#
# Track frame offsets:
#	150
#	11346
#	27991
#	39838
#	55531
#	68573
#	85484
#	97279
#	115832
#	128591
#	146349
#	157669
#
# Disc length: 2329 seconds
#
# Revision: 0
# Processed by: cddbd v1.5.2PL0 Copyright (c) Steve Scherf et al.
# Submitted via: dBpowerAMP V4.0
#
DISCID=8909170c
DTITLE=Robert Mizzell - Lookin' Lucky
DYEAR=2003
DGENRE=Country
TTITLE0=Lookin' Lucky
TTITLE1=When You Let Go Of Me
TTITLE2=Mama's Rocking Chair
TTITLE3=This Woman Of Mine
TTITLE4=Some Things I Want To Sing About
TTITLE5=My Dreams Just Came True
TTITLE6=Them Old Hank Williams Songs
TTITLE7=Ten Out Of Ten
TTITLE8=Hard Working Hands
TTITLE9=You Had Me By The Heart
TTITLE10=You Really Hit The Spot
TTITLE11=Mama Did Raise One Fool
EXTD=
EXTT0=
EXTT1=
EXTT2=
EXTT3=
EXTT4=
EXTT5=
EXTT6=
EXTT7=
EXTT8=
EXTT9=
EXTT10=
EXTT11=
PLAYORDER=
